<svg width="56" height="56" viewBox="0 0 56 56" fill="none" xmlns="http://www.w3.org/2000/svg">
<path fill-rule="evenodd" clip-rule="evenodd" d="M11.6084 3.18632C12.1555 2.15873 13.2247 1.51667 14.3889 1.51667H43.5556C44.8182 1.51667 45.9589 2.27063 46.4536 3.4323L54.2314 21.6932C54.6915 22.7733 54.5127 24.0197 53.7674 24.927L30.4341 53.3328C29.8358 54.0612 28.9426 54.4833 28 54.4833C27.0574 54.4833 26.1642 54.0612 25.5659 53.3328L2.23258 24.927C1.42475 23.9435 1.28808 22.5706 1.88619 21.4472L11.6084 3.18632ZM20.6656 7.81667L28.1643 17.8771L36.7343 7.81667H20.6656ZM42.6523 10.5846L34.8213 19.7775H46.5678L42.6523 10.5846ZM44.6694 26.0775H31.15V42.5359L44.6694 26.0775ZM24.85 42.5359V26.0775H11.3306L24.85 42.5359ZM9.91238 19.7775L14.8336 10.5342L21.7233 19.7775H9.91238Z" fill="#FFB24E"/>
</svg>
